<svg id="Layer_1" data-name="Layer 1" xmlns="http://www.w3.org/2000/svg" viewBox="0 0 27 27"><rect x="13" y="23" width="1" height="4"/><rect x="6.679" y="24.424" width="3.981" height="0.999" transform="translate(-17.063 19.077) rotate(-58.018)"/><rect x="18.054" y="22.932" width="0.999" height="3.982" transform="translate(-10.382 13.604) rotate(-31.971)"/><rect x="13" width="1" height="19"/><path d="M3.65,22.814h-1a4.7,4.7,0,0,1,1.508-3.442A5.125,5.125,0,0,1,8.005,18h11.02a5.3,5.3,0,0,1,3.9,1.41A4.316,4.316,0,0,1,24.35,22.5h-1a3.316,3.316,0,0,0-1.107-2.362A4.287,4.287,0,0,0,19.056,19H7.975a4.13,4.13,0,0,0-3.131,1.1A3.7,3.7,0,0,0,3.65,22.814Z"/></svg>