<svg id="Layer_1" data-name="Layer 1" xmlns="http://www.w3.org/2000/svg" viewBox="0 0 29 29"><defs><style>.cls-1{fill:none;stroke:#000;stroke-miterlimit:10;stroke-width:2px;}</style></defs><path class="cls-1" d="M11,6.09l-.48-1a.75.75,0,0,0-1-.37L1.73,8.31h0a.75.75,0,0,0-.36,1L9.16,26a.74.74,0,0,0,1,.36l7.8-3.62a.75.75,0,0,0,.36-1L17.94,21"/><path class="cls-1" d="M13,25.08l6.79,2.79a.75.75,0,0,0,1-.41l7-17.08a.74.74,0,0,0-.41-1l-6.2-2.55"/><path class="cls-1" d="M20.26,1H11.75a.76.76,0,0,0-.75.75v18.5a.76.76,0,0,0,.75.75h8.5a.76.76,0,0,0,.75-.75V1.75A.75.75,0,0,0,20.26,1Z"/></svg>