<svg id="Layer_1" data-name="Layer 1" xmlns="http://www.w3.org/2000/svg" viewBox="0 0 27 27"><path d="M21,25.5a.5.5,0,0,1-.328-.123L11.6,17.486a.5.5,0,1,1,.656-.754l9.07,7.891A.5.5,0,0,1,21,25.5Z"/><path d="M17,4H16a2.99,2.99,0,0,0-3.213-2.691A2.991,2.991,0,0,0,9.574,4h-1A3.983,3.983,0,0,1,12.787.309,3.983,3.983,0,0,1,17,4Z"/><rect x="16" y="4" width="1" height="17"/><path d="M3.146,13.135a.488.488,0,0,1-.068,0l-.461-.067.01-.483c.023-.332.4-.561.927-.72.669-.526,1.934-1.949,2.719-5.486a2.891,2.891,0,0,1,5.781-.089c.848,3.331,2.113,4.834,2.849,5.4.552.141.953.361.989.7l-.434.562a1.522,1.522,0,0,1-.95-.326,12.635,12.635,0,0,0-2.848-.174l-.029-1c.349-.009.986-.016,1.667.021A13.219,13.219,0,0,1,11.07,6.477l-.014-.115a1.892,1.892,0,0,0-3.783.059v.058l-.012.057a13.226,13.226,0,0,1-2.068,5.047c.675-.061,1.312-.071,1.662-.072l0,1a12.742,12.742,0,0,0-2.836.261A1.7,1.7,0,0,1,3.146,13.135Z"/><path d="M9.2,13.9a.807.807,0,0,1-.531-.228,1.079,1.079,0,0,1-.311-.712,1.657,1.657,0,0,1-.6-.2,1.949,1.949,0,0,0-.909-.251l.011-1a2.951,2.951,0,0,1,1.336.352,1.568,1.568,0,0,0,.241.1.8.8,0,0,1,.64.194.84.84,0,0,1,.177.219.778.778,0,0,1,.169-.224.831.831,0,0,1,.655-.215c.028-.006.17-.078.273-.129a2.746,2.746,0,0,1,1.292-.369v1a1.841,1.841,0,0,0-.842.261,1.867,1.867,0,0,1-.636.232,1.076,1.076,0,0,1-.288.721.859.859,0,0,1-.628.245Z"/><path d="M11.93,25.5a.5.5,0,0,1-.328-.877l9.07-7.891a.5.5,0,0,1,.656.754l-9.07,7.891A.5.5,0,0,1,11.93,25.5Z"/></svg>