<svg id="Layer_1" data-name="Layer 1" xmlns="http://www.w3.org/2000/svg" viewBox="0 0 27 27"><path d="M13.5,22.527l-.272-.09C5.316,19.84.206,15.164.514,10.8A7.111,7.111,0,0,1,6.132,4.646a8.332,8.332,0,0,1,5.235.735A6.662,6.662,0,0,1,13.5,7.046a6.664,6.664,0,0,1,2.132-1.665,8.34,8.34,0,0,1,5.235-.735A7.112,7.112,0,0,1,26.486,10.8h0c.307,4.36-4.8,9.036-12.716,11.633ZM7.621,5.5a6.423,6.423,0,0,0-1.288.126,6.079,6.079,0,0,0-4.822,5.248c-.274,3.889,4.542,8.145,11.989,10.6,7.448-2.455,12.263-6.711,11.989-10.6h0a6.078,6.078,0,0,0-4.821-5.248,7.305,7.305,0,0,0-4.585.647,5.431,5.431,0,0,0-2.159,1.886L13.5,8.82l-.422-.66a5.455,5.455,0,0,0-2.164-1.887A7.474,7.474,0,0,0,7.621,5.5Z"/></svg>