<svg id="Layer_1" data-name="Layer 1" xmlns="http://www.w3.org/2000/svg" viewBox="0 0 27 27"><path d="M19.517,26.958l-.8-.063c-.457-.036-4.506-.383-5.866-1.5C11.4,24.2,11.259,21.267,11.6,20.631a2.7,2.7,0,0,1,1.778-1.019,2.912,2.912,0,0,1,2.479.54c1.337,1.1,3.158,5.553,3.361,6.058Zm-5.441-6.417a2.5,2.5,0,0,0-.373.029,2.2,2.2,0,0,0-1.226.534c-.12.337-.044,2.65,1,3.515.773.637,3.043,1.025,4.483,1.2-.688-1.592-1.933-4.22-2.747-4.891A1.76,1.76,0,0,0,14.076,20.541Z"/><path d="M17.846,26.958l.3-.748c.2-.5,2.023-4.957,3.36-6.058a2.909,2.909,0,0,1,2.477-.54,2.711,2.711,0,0,1,1.782,1.018c.338.637.2,3.569-1.25,4.761-1.361,1.121-5.409,1.468-5.866,1.5Zm5.44-6.417a1.756,1.756,0,0,0-1.142.382c-.815.671-2.06,3.3-2.748,4.891,1.44-.17,3.711-.559,4.483-1.2,1.05-.865,1.126-3.178.995-3.538a2.334,2.334,0,0,0-1.216-.511A2.5,2.5,0,0,0,23.286,20.541Z"/><path d="M19,5.178H18a3.3,3.3,0,0,0-6.6,0h-1a4.3,4.3,0,0,1,8.6,0Z"/><rect x="18" y="5" width="1" height="21"/><path d="M3.121,16.249a.463.463,0,0,1-.077-.006l-.46-.066,0-.487c.024-.35.453-.6,1.048-.77.809-.624,2.325-2.313,3.268-6.573a3.336,3.336,0,0,1,3.28-3.322h.051a3.336,3.336,0,0,1,3.329,3.22c1.079,4.241,2.654,5.882,3.48,6.477.6.155,1.028.387,1.063.734l-.436.566a1.82,1.82,0,0,1-1.019-.365,14.1,14.1,0,0,0-3.465-.228l-.029-1c.216-.006,1.164-.028,2.178.046a14.9,14.9,0,0,1-2.755-6.04l-.015-.114a2.331,2.331,0,1,0-4.662.073V8.45l-.012.057A15.26,15.26,0,0,1,5.342,14.62c1-.1,1.947-.111,2.162-.112l0,1a14.578,14.578,0,0,0-3.374.315A1.944,1.944,0,0,1,3.121,16.249Z"/><path d="M10.293,17.158a.87.87,0,0,1-.576-.245,1.237,1.237,0,0,1-.345-.892,1.3,1.3,0,0,1-.757-.206A2.41,2.41,0,0,0,7.5,15.508l.012-1a3.366,3.366,0,0,1,1.543.408,1.411,1.411,0,0,0,.318.131.876.876,0,0,1,.706.21.862.862,0,0,1,.272.455.861.861,0,0,1,.257-.463.885.885,0,0,1,.7-.231,1.944,1.944,0,0,0,.376-.164,3.174,3.174,0,0,1,1.487-.426v1a2.239,2.239,0,0,0-1.037.319,1.945,1.945,0,0,1-.8.27,1.232,1.232,0,0,1-.318.877.88.88,0,0,1-.674.262Z"/></svg>