<svg id="Layer_1" data-name="Layer 1" xmlns="http://www.w3.org/2000/svg" viewBox="0 0 27 27"><path d="M13.5,21.329a8.037,8.037,0,0,1-8.141-7.908A8.037,8.037,0,0,1,13.5,5.513a8.037,8.037,0,0,1,8.141,7.908A8.037,8.037,0,0,1,13.5,21.329Zm0-14.816a7.034,7.034,0,0,0-7.141,6.908A7.035,7.035,0,0,0,13.5,20.329a7.036,7.036,0,0,0,7.141-6.908A7.035,7.035,0,0,0,13.5,6.513Z"/><rect y="13" width="4" height="1"/><rect x="23" y="13" width="4" height="1"/><rect x="13" y="23" width="1" height="4"/><rect x="13" width="1" height="4"/><rect x="4.492" y="3.158" width="1.001" height="3.692" transform="translate(-2.076 4.987) rotate(-44.925)"/><rect x="20.162" y="4.504" width="3.692" height="1.001" transform="translate(2.924 17.054) rotate(-45.079)"/><rect x="21.507" y="20.217" width="1.001" height="3.692" transform="translate(-9.155 21.983) rotate(-44.925)"/><rect x="3.146" y="21.562" width="3.692" height="1.001" transform="translate(-14.155 10.019) rotate(-45.079)"/></svg>