<svg id="Layer_1" data-name="Layer 1" xmlns="http://www.w3.org/2000/svg" viewBox="0 0 50 45.04"><g id="Group_428" data-name="Group 428"><path id="Path_334" data-name="Path 334" d="M26.23,40.59c0-.05,0-.09.05-.12s.2-.31.28-.47a4.07,4.07,0,0,0,.56-2.21,5.68,5.68,0,0,0-.19-1.08,10.66,10.66,0,0,0-.57-1.55q-.43-.94-.93-1.86c-.42-.78-.84-1.56-1.25-2.34a25.08,25.08,0,0,1-1.13-2.41,8.57,8.57,0,0,1-.48-1.4c.17.11.87.45,1,.51a11.79,11.79,0,0,0,2.19.75,31.85,31.85,0,0,0,4.86.73c1.3.1,2.59.17,3.89.25a13.35,13.35,0,0,1,3.78.49,2.25,2.25,0,0,1,.93.65,3.69,3.69,0,0,1,.44.67,6,6,0,0,1,.47,1.22,12.53,12.53,0,0,1,.34,2,20.69,20.69,0,0,1,0,3.52A19.19,19.19,0,0,1,40,40.78a11,11,0,0,1-.37,1.36,4.07,4.07,0,0,1-.18.44.28.28,0,0,1-.17.15l-.39.12a8.14,8.14,0,0,1-1.1.18,17.64,17.64,0,0,1-2.62,0,25,25,0,0,1-4.3-.53,16.49,16.49,0,0,1-2.37-.7,9.29,9.29,0,0,1-1.36-.62,5.48,5.48,0,0,1-.9-.61Z"/><path id="Path_335" data-name="Path 335" d="M27.38,27.12a14,14,0,0,0,4.36-3.59,42.23,42.23,0,0,0,3.48-5q.51-.81,1.05-1.62c.26-.38.54-.76.84-1.12a6.41,6.41,0,0,1,.81-.84,2.34,2.34,0,0,1,.89-.45,3.11,3.11,0,0,1,.86-.09,6.44,6.44,0,0,1,1.31.17,11.27,11.27,0,0,1,1.61.54,12.39,12.39,0,0,1,1.17.54l.83.44c.43.24.85.5,1.26.77s.56.38.84.57l.76.56.85.69c.26.22.51.45.76.68a9.15,9.15,0,0,1,.79.86l.11.15a.23.23,0,0,1,0,.16c0,.09,0,.19,0,.29a5.66,5.66,0,0,1-.32.9q-.29.66-.63,1.29c-.26.46-.53.92-.82,1.36s-.49.74-.76,1.1-.46.62-.7.92l-.72.87a16.83,16.83,0,0,1-2.7,2.5,8.07,8.07,0,0,1-1.5.88l-.3.12-.09,0-.06-.12a6.41,6.41,0,0,0-.71-1.07,4.33,4.33,0,0,0-1.06-.89,4.38,4.38,0,0,0-.86-.37,8.62,8.62,0,0,0-1.4-.33,20.82,20.82,0,0,0-2.09-.2l-2.66-.1c-.95,0-1.9-.09-2.85-.2-.78-.09-1.56-.24-2.34-.38Z"/><path id="Path_336" data-name="Path 336" d="M17.34,20.59a4.77,4.77,0,0,1,1-2.53l-1.09,0-2.46-.09a19.19,19.19,0,0,1-2.13-.21A8.36,8.36,0,0,1,11,17.29a4.07,4.07,0,0,1-1.42-.93,5.07,5.07,0,0,1-.79-1l-.2-.38-.11,0-.38.16a8.08,8.08,0,0,0-1.36.8,15.82,15.82,0,0,0-2.39,2.16c-.32.34-.63.7-.93,1.07s-.65.83-1,1.26l-.58.84c-.27.4-.52.82-.76,1.24s-.47.88-.68,1.33a8.72,8.72,0,0,0-.36,1c0,.13,0,.26-.08.38a.23.23,0,0,0,.05.18l.25.33a12,12,0,0,0,1,1q.54.48,1.11.93c.38.29.77.58,1.16.85a23.3,23.3,0,0,0,2,1.26c.37.2.74.39,1.12.56a12.78,12.78,0,0,0,1.48.61,8.76,8.76,0,0,0,1.59.38,4.15,4.15,0,0,0,1.22,0,2.23,2.23,0,0,0,1.1-.51l.29-.26a9.76,9.76,0,0,0,.93-1.11c.28-.37.54-.75.79-1.14s.35-.54.52-.82c.42-.66.82-1.32,1.24-2s.87-1.31,1.34-1.94c.19-.26.39-.51.59-.76A4.48,4.48,0,0,1,17.34,20.59Z"/><path id="Path_337" data-name="Path 337" d="M25.09,36.84a11.35,11.35,0,0,0-.47-1.22c-.3-.65-.63-1.27-1-1.9l-1.29-2.41a24.28,24.28,0,0,1-1.17-2.6,14.49,14.49,0,0,1-.74-2.65c0-.09,0-.18,0-.27a10.67,10.67,0,0,1-1.69-1.6c-.12.18-.24.37-.35.57a6.31,6.31,0,0,1-.4.65l-.55.81c-.3.45-.6.9-.89,1.35-.46.7-.91,1.41-1.39,2.09-.32.44-.65.88-1,1.29s-.51.55-.79.81A4.34,4.34,0,0,1,11,32.83a6.64,6.64,0,0,1-1,0,.2.2,0,0,0-.13,0l0,.12a5.51,5.51,0,0,0-.08.71,8.83,8.83,0,0,0,0,1.36,15,15,0,0,0,.56,2.64,23.09,23.09,0,0,0,1.2,3.12,19.42,19.42,0,0,0,1.5,2.67,8.67,8.67,0,0,0,.88,1.14,3.61,3.61,0,0,0,.35.33.32.32,0,0,0,.25.07l.28,0a10.9,10.9,0,0,0,1.39-.36,24.77,24.77,0,0,0,4.73-2.12,17.52,17.52,0,0,0,2.17-1.46,8.21,8.21,0,0,0,1.52-1.54,3.57,3.57,0,0,0,.48-.85,2.09,2.09,0,0,0,.13-1.26C25.19,37.22,25.15,37,25.09,36.84Z"/><path id="Path_338" data-name="Path 338" d="M40.12,10.34a15.58,15.58,0,0,0-.6-2.79,23,23,0,0,0-1.36-3.48,20.1,20.1,0,0,0-1.46-2.6A8.73,8.73,0,0,0,35.87.4a2.11,2.11,0,0,0-.38-.35.25.25,0,0,0-.19,0l-.4.05a10.76,10.76,0,0,0-1.35.36,25.3,25.3,0,0,0-3.44,1.45,19.93,19.93,0,0,0-2.73,1.67,10,10,0,0,0-2,1.82,4.25,4.25,0,0,0-.65,1.08,2.23,2.23,0,0,0-.13,1.37c0,.12.05.23.08.35a8,8,0,0,0,.39,1.13c.28.66.6,1.31.94,2s.83,1.57,1.25,2.37a29.63,29.63,0,0,1,1.27,2.74c0,.09.08.18.11.27a4.08,4.08,0,0,1,.69.09,4.21,4.21,0,0,1,3,3l.28-.43,1.07-1.71c.27-.42.54-.85.82-1.27a17.57,17.57,0,0,1,1.21-1.66,10,10,0,0,1,.9-.94,4.12,4.12,0,0,1,1.94-1,6.09,6.09,0,0,1,1.35-.09h.14a.36.36,0,0,0,0-.1,4.34,4.34,0,0,0,.07-.52A8.28,8.28,0,0,0,40.12,10.34Z"/><path id="Path_339" data-name="Path 339" d="M26.05,17.91Z"/><path id="Path_340" data-name="Path 340" d="M26.86,16.94h0c-.36-.87-.86-1.92-1.29-2.75l-1.2-2.26c-.36-.69-.7-1.38-1-2.1a9,9,0,0,1-.53-1.75,4,4,0,0,1,.11-2,5.19,5.19,0,0,1,.58-1.24l.12-.18,0-.05c-.11-.09-.23-.19-.35-.27a8.41,8.41,0,0,0-1.77-1,15.8,15.8,0,0,0-2.24-.72,23.35,23.35,0,0,0-3.54-.59A21.92,21.92,0,0,0,12.58,2a9.7,9.7,0,0,0-1.52.18,2.66,2.66,0,0,0-.55.16.26.26,0,0,0-.16.15c0,.1-.09.21-.12.31a10.77,10.77,0,0,0-.4,1.45,24.43,24.43,0,0,0-.48,4.34,18.54,18.54,0,0,0,.17,3.07A10.2,10.2,0,0,0,10,13.57a4.64,4.64,0,0,0,.53,1.07,2.61,2.61,0,0,0,.73.75,2.52,2.52,0,0,0,.69.31,8.74,8.74,0,0,0,1.33.28c.64.08,1.27.12,1.91.15l2.62.1c1.08.05,2.16.12,3.23.26l1.12.19h0a4.55,4.55,0,0,1,1.38.49,3.79,3.79,0,0,1,1.43,1.41,4,4,0,0,1,.88-1h0a3.67,3.67,0,0,1,.56-.38C26.53,17.09,26.69,17,26.86,16.94Z"/></g></svg>