<svg id="Layer_1" data-name="Layer 1" xmlns="http://www.w3.org/2000/svg" viewBox="0 0 27 27"><path d="M8.5,13A3.5,3.5,0,1,1,12,9.5,3.5,3.5,0,0,1,8.5,13Zm0-6A2.5,2.5,0,1,0,11,9.5,2.5,2.5,0,0,0,8.5,7Z"/><path d="M15.1,24a.5.5,0,0,1-.354-.146L10.1,19.207a2.252,2.252,0,0,0-3.111,0L2.349,23.851a.5.5,0,0,1-.707-.707L6.286,18.5a3.275,3.275,0,0,1,4.525,0l4.644,4.644A.5.5,0,0,1,15.1,24Z"/><path d="M26.368,25.966a.5.5,0,0,1-.353-.147L21.37,21.176a2.249,2.249,0,0,0-3.11,0l-4.644,4.643a.5.5,0,1,1-.707-.707l4.644-4.644a3.275,3.275,0,0,1,4.524,0l4.645,4.644a.5.5,0,0,1-.354.854Z"/></svg>