<svg id="Layer_1" data-name="Layer 1" xmlns="http://www.w3.org/2000/svg" viewBox="0 0 27 27"><rect x="8" y="2" width="12" height="1"/><path d="M21.268,27h-1a6.25,6.25,0,1,0-12.5,0h-1a7.25,7.25,0,1,1,14.5,0Z"/><path d="M14.018,7.253A7.26,7.26,0,0,1,6.768,0h1a6.259,6.259,0,0,0,6.25,6.253A6.259,6.259,0,0,0,20.268,0h1A7.26,7.26,0,0,1,14.018,7.253Z"/><path d="M21.268,13.494h-1a6.25,6.25,0,1,0-12.5,0h-1a7.25,7.25,0,1,1,14.5,0Z"/><path d="M14.018,20.747a7.26,7.26,0,0,1-7.25-7.253h1a6.25,6.25,0,1,0,12.5,0h1A7.26,7.26,0,0,1,14.018,20.747Z"/><polygon points="21 12 7 12 8 11 20 11 21 12"/><polygon points="20.5 16 8 16 7 15 21 15 20.5 16"/><rect x="8" y="24" width="12" height="1"/></svg>