<svg id="Layer_1" data-name="Layer 1" xmlns="http://www.w3.org/2000/svg" viewBox="0 0 27 27"><path d="M12.164,16.953a6.207,6.207,0,0,1-6.286-6.11,6.208,6.208,0,0,1,6.286-6.111,6.208,6.208,0,0,1,6.287,6.111A6.207,6.207,0,0,1,12.164,16.953Zm0-11.221a5.207,5.207,0,0,0-5.286,5.111,5.206,5.206,0,0,0,5.286,5.11,5.207,5.207,0,0,0,5.287-5.11A5.207,5.207,0,0,0,12.164,5.732Z"/><rect x="1" y="10" width="3" height="1"/><rect x="20" y="10" width="3" height="1"/><rect x="11" y="19" width="1" height="3"/><rect x="11" width="1" height="3"/><path d="M26.5,27h-13a.5.5,0,0,1,0-1h13a.5.5,0,0,1,0,1Z"/><polygon points="5.676 5.133 3.701 3.152 4.41 2.447 6.385 4.428 5.676 5.133"/><polygon points="18.653 5.133 17.944 4.428 19.919 2.447 20.628 3.152 18.653 5.133"/><polygon points="19.919 19.408 17.944 17.428 18.653 16.723 20.628 18.703 19.919 19.408"/><polygon points="4.41 19.408 3.701 18.703 5.676 16.723 6.385 17.428 4.41 19.408"/></svg>