<svg id="Layer_1" data-name="Layer 1" xmlns="http://www.w3.org/2000/svg" viewBox="0 0 27 27"><path d="M16.5,6.061h-1a2,2,0,0,0-4,0h-1a3,3,0,0,1,6,0Z"/><path d="M18.5,9.061a3,3,0,0,1-3-3h1a2,2,0,0,0,4,0h1A3,3,0,0,1,18.5,9.061Z"/><path d="M26.5,6.061h-1a2,2,0,0,0-4,0h-1a3,3,0,0,1,6,0Z"/><path d="M8.5,9.061a3,3,0,0,1-3-3h1a2,2,0,0,0,4,0h1A3,3,0,0,1,8.5,9.061Z"/><path d="M6.5,6.214h-1a2,2,0,0,0-4,0H.5a3,3,0,1,1,6,0Z"/><path d="M16.5,13.409h-1a2,2,0,1,0-4,0h-1a3,3,0,1,1,6,0Z"/><path d="M18.5,16.409a3,3,0,0,1-3-3h1a2,2,0,0,0,4,0h1A3,3,0,0,1,18.5,16.409Z"/><path d="M26.5,13.409h-1a2,2,0,1,0-4,0h-1a3,3,0,1,1,6,0Z"/><path d="M8.5,16.409a3,3,0,0,1-3-3h1a2,2,0,0,0,4,0h1A3,3,0,0,1,8.5,16.409Z"/><path d="M6.5,13.562h-1a2,2,0,1,0-4,0H.5a3,3,0,1,1,6,0Z"/><path d="M16.5,20.939h-1a2,2,0,0,0-4,0h-1a3,3,0,0,1,6,0Z"/><path d="M18.5,23.939a3,3,0,0,1-3-3h1a2,2,0,0,0,4,0h1A3,3,0,0,1,18.5,23.939Z"/><path d="M26.5,20.939h-1a2,2,0,0,0-4,0h-1a3,3,0,0,1,6,0Z"/><path d="M8.5,23.939a3,3,0,0,1-3-3h1a2,2,0,0,0,4,0h1A3,3,0,0,1,8.5,23.939Z"/><path d="M6.5,21.092h-1a2,2,0,0,0-4,0H.5a3,3,0,0,1,6,0Z"/></svg>