<svg id="Layer_1" data-name="Layer 1" xmlns="http://www.w3.org/2000/svg" viewBox="0 0 27 27"><path d="M6.732,14.958a.5.5,0,0,1-.178-.967l7.968-3.058a.5.5,0,1,1,.358.933L6.911,14.925A.506.506,0,0,1,6.732,14.958Z"/><path d="M11.5,22.242a.5.5,0,0,1-.414-.22L6.334,15a.5.5,0,1,1,.828-.56l4.749,7.026a.5.5,0,0,1-.134.694A.491.491,0,0,1,11.5,22.242Z"/><path d="M11.5,22.242a.5.5,0,0,1-.369-.837l5.916-6.489a.5.5,0,1,1,.738.674l-5.916,6.489A.493.493,0,0,1,11.5,22.242Z"/><path d="M17.413,15.753a.5.5,0,0,1-.4-.2l-2.7-3.6a.5.5,0,0,1,.8-.6l2.7,3.6a.5.5,0,0,1-.1.7A.494.494,0,0,1,17.413,15.753Z"/><path d="M5.45,25.107a.5.5,0,0,1-.353-.853l4.669-4.671a.5.5,0,0,1,.707.707L5.8,24.961A.5.5,0,0,1,5.45,25.107Z"/><path d="M15.562,26.417a.5.5,0,0,1-.359-.151l-4.064-4.175a.5.5,0,1,1,.716-.7l4.065,4.174a.5.5,0,0,1-.358.849Z"/><path d="M17.413,15.753a.5.5,0,0,1-.017-1l6.586-.231a.529.529,0,0,1,.518.483.5.5,0,0,1-.482.517l-6.587.231Z"/><path d="M21.437,17.406a.494.494,0,0,1-.19-.037l-4.024-1.653a.5.5,0,1,1,.381-.926l4.024,1.653a.5.5,0,0,1-.191.963Z"/><path d="M15.005,11.57a.5.5,0,0,1-.381-.824l7.17-8.43a.5.5,0,0,1,.762.649l-7.17,8.43A.5.5,0,0,1,15.005,11.57Z"/><path d="M9.753,12.952a.5.5,0,0,1-.451-.285L7.334,8.541a.5.5,0,0,1,.9-.43L10.2,12.237a.5.5,0,0,1-.236.666A.489.489,0,0,1,9.753,12.952Z"/><path d="M7.785,8.826A.5.5,0,0,1,7.366,8.6L3.24,2.273a.5.5,0,1,1,.838-.546L8.2,8.053a.5.5,0,0,1-.419.773Z"/><path d="M18.453,15.109a.5.5,0,0,1-.443-.731l3.313-6.346a.5.5,0,1,1,.887.463L18.9,14.841A.5.5,0,0,1,18.453,15.109Z"/><path d="M23.409,26.5a.5.5,0,0,1-.488-.395l-1.972-9.093a.5.5,0,1,1,.977-.211L23.9,25.9a.5.5,0,0,1-.382.593A.492.492,0,0,1,23.409,26.5Z"/><path d="M1,14.778a.5.5,0,0,1-.369-.837l5.86-6.416a.5.5,0,1,1,.738.674l-5.86,6.416A.493.493,0,0,1,1,14.778Z"/><path d="M5.232,24.722a.5.5,0,0,1-.425-.239L1.129,18.491a.5.5,0,1,1,.851-.523L5.658,23.96a.5.5,0,0,1-.164.687A.493.493,0,0,1,5.232,24.722Z"/></svg>