<svg id="Layer_1" data-name="Layer 1" xmlns="http://www.w3.org/2000/svg" viewBox="0 0 27 27"><path d="M26.5,27H1.5a.5.5,0,0,1,0-1h25a.5.5,0,0,1,0,1Z"/><path d="M8.658,13.1A4.6,4.6,0,0,1,4,8.565,4.6,4.6,0,0,1,8.658,4.034a4.6,4.6,0,0,1,4.658,4.531A4.6,4.6,0,0,1,8.658,13.1Zm0-8.063A3.6,3.6,0,0,0,5,8.565,3.6,3.6,0,0,0,8.658,12.1a3.6,3.6,0,0,0,3.658-3.532A3.6,3.6,0,0,0,8.658,5.034Z"/><rect y="8" width="2" height="1"/><rect x="15" y="8" width="2" height="1"/><rect x="8" y="15" width="1" height="2"/><rect x="8" width="1" height="2"/><polygon points="3.029 3.694 1.61 2.272 2.317 1.565 3.736 2.987 3.029 3.694"/><polygon points="14.288 3.694 13.581 2.987 15 1.565 15.707 2.272 14.288 3.694"/><polygon points="15 15.688 13.581 14.267 14.288 13.56 15.707 14.981 15 15.688"/><polygon points="2.317 15.688 1.61 14.981 3.029 13.56 3.736 14.267 2.317 15.688"/></svg>