<svg id="Layer_1" data-name="Layer 1" xmlns="http://www.w3.org/2000/svg" viewBox="0 0 27 27"><defs><style>.cls-1,.cls-2,.cls-3,.cls-4{fill:none;stroke:#000;}.cls-1,.cls-2,.cls-4{stroke-miterlimit:10;}.cls-1{stroke-width:2px;}.cls-2,.cls-3{stroke-linecap:round;}.cls-3{stroke-linejoin:round;}</style></defs><path id="Ellipse_4" data-name="Ellipse 4" class="cls-1" d="M5.6,0A5.52,5.52,0,0,1,0,5.43"/><line class="cls-1" x1="1" y1="8" x2="1" y2="11"/><line class="cls-1" x1="7.95" y1="7.52" x2="6.04" y2="5.61"/><line class="cls-2" x1="16.5" y1="7.5" x2="16.5" y2="8.5"/><path class="cls-3" d="M7.45,18.51a9.43,9.43,0,0,1,18.86,0"/><path class="cls-4" d="M16.5,24.41a1.58,1.58,0,1,1-3.16,0"/><line class="cls-4" x1="16.5" y1="15.5" x2="16.5" y2="24.5"/><path class="cls-3" d="M7.45,18.48a2.91,2.91,0,0,1,3.14-2.59,2.91,2.91,0,0,1,3.15,2.59"/><path class="cls-3" d="M13.74,18.48a2.91,2.91,0,0,1,3.14-2.59A2.9,2.9,0,0,1,20,18.48"/><path class="cls-3" d="M20,18.48a2.91,2.91,0,0,1,3.15-2.59,2.91,2.91,0,0,1,3.14,2.59"/><line class="cls-1" x1="8" y1="1" x2="11" y2="1"/></svg>