<svg id="Layer_1" data-name="Layer 1" xmlns="http://www.w3.org/2000/svg" viewBox="0 0 27 27"><path d="M0,5.93v-1A5.024,5.024,0,0,0,5.1,0h1A6.024,6.024,0,0,1,0,5.93Z"/><rect x="1" y="8" width="1" height="3"/><rect x="6.494" y="5.213" width="1.001" height="2.706" transform="translate(-2.595 6.855) rotate(-44.912)"/><path d="M16.5,9a.5.5,0,0,1-.5-.5v-1a.5.5,0,0,1,1,0v1A.5.5,0,0,1,16.5,9Z"/><path d="M26.312,19.015a.5.5,0,0,1-.5-.5,8.931,8.931,0,0,0-17.862,0,.5.5,0,0,1-1,0,9.931,9.931,0,0,1,19.862,0A.5.5,0,0,1,26.312,19.015Z"/><path d="M16,16v8.409a1.08,1.08,0,0,1-2.16,0h-1a2.08,2.08,0,0,0,4.16,0V16Z"/><path d="M13.737,18.979a.5.5,0,0,1-.5-.5,2.416,2.416,0,0,0-2.643-2.085A2.417,2.417,0,0,0,7.95,18.479a.5.5,0,0,1-1,0,3.4,3.4,0,0,1,3.644-3.085,3.4,3.4,0,0,1,3.643,3.085A.5.5,0,0,1,13.737,18.979Z"/><path d="M20.024,18.979a.5.5,0,0,1-.5-.5,2.416,2.416,0,0,0-2.643-2.085,2.417,2.417,0,0,0-2.644,2.085.5.5,0,0,1-1,0,3.4,3.4,0,0,1,3.644-3.085,3.4,3.4,0,0,1,3.643,3.085A.5.5,0,0,1,20.024,18.979Z"/><path d="M26.312,18.979a.5.5,0,0,1-.5-.5,2.417,2.417,0,0,0-2.644-2.085,2.417,2.417,0,0,0-2.644,2.085.5.5,0,0,1-1,0,3.4,3.4,0,0,1,3.644-3.085,3.4,3.4,0,0,1,3.644,3.085A.5.5,0,0,1,26.312,18.979Z"/><rect x="8" y="1" width="3" height="1"/></svg>