<svg id="Layer_1" data-name="Layer 1" xmlns="http://www.w3.org/2000/svg" viewBox="0 0 27 27"><path d="M12.351,25.478C8.2,24.179,6.4,20.947,4.958,18.351A10.535,10.535,0,0,0,2.8,15.27l.619-.786a11.135,11.135,0,0,1,2.41,3.381c1.429,2.568,3.047,5.479,6.817,6.657Z"/><path d="M16.269,24.869l-.3-.955c3.678-1.15,4.918-3.9,6.011-6.324a9.066,9.066,0,0,1,2.209-3.483l.62.786A8.276,8.276,0,0,0,22.894,18C21.771,20.489,20.376,23.584,16.269,24.869Z"/><rect x="13" y="9" width="1" height="10"/><rect x="13" y="19" width="1" height="6"/><path d="M17.874,17.748l-.965-.265c.087-.318.189-.626.285-.921a5.357,5.357,0,0,0,.346-1.423c0-3.223-3.075-5.643-3.664-5.647a7.051,7.051,0,0,0-3.664,5.647A4.431,4.431,0,0,0,10.9,17.12l-.784.623a5.314,5.314,0,0,1-.9-2.6c0-3.581,3.556-6.647,4.664-6.647,1.277,0,4.664,3.019,4.664,6.647a5.946,5.946,0,0,1-.395,1.735C18.053,17.154,17.956,17.446,17.874,17.748Z"/><path d="M11.443,25.267c-2.645-.375-6.109-1.079-7.585-2.3C1.366,20.9,1.264,15.809,1.729,14.926A4.51,4.51,0,0,1,4.64,13.3a4.8,4.8,0,0,1,4.081.888c.911.755,2.071,2.544,3.449,5.315l-.895.446c-1.638-3.3-2.641-4.534-3.193-4.992a3.824,3.824,0,0,0-3.247-.676,3.849,3.849,0,0,0-2.222,1.113c-.285.575-.2,5.07,1.884,6.8,1.011.839,3.527,1.578,7.087,2.083Z"/><path d="M16.054,25.336l-.131-.992c3.824-.5,6.515-1.268,7.58-2.151,2.086-1.73,2.169-6.225,1.884-6.8a3.856,3.856,0,0,0-2.222-1.112,3.825,3.825,0,0,0-3.247.676c-.562.466-1.582,1.732-3.255,5.117l-.9-.443c1.405-2.844,2.587-4.676,3.512-5.443A4.784,4.784,0,0,1,23.36,13.3a4.51,4.51,0,0,1,2.911,1.627c.465.883.363,5.97-2.129,8.037C22.6,24.247,18.89,24.962,16.054,25.336Z"/><path d="M15.65,25.35l-.812-.584c1.565-2.18,1.734-3.036,1.734-3.3,0-1.222-2.2-2.323-2.7-2.323-.495.019-2.7,1.154-2.7,2.323,0,.264.166,1.109,1.7,3.26l-.815.582c-1.889-2.645-1.889-3.546-1.889-3.842,0-1.909,2.924-3.323,3.7-3.323.894,0,3.7,1.379,3.7,3.323C17.572,21.763,17.572,22.673,15.65,25.35Z"/><path d="M14.2,25.442a19.419,19.419,0,0,1-2.764-.177l.162-.987a18.74,18.74,0,0,0,4.317.068l.152.988A13.267,13.267,0,0,1,14.2,25.442Z"/></svg>