<svg id="Layer_1" data-name="Layer 1" xmlns="http://www.w3.org/2000/svg" viewBox="0 0 27 27"><path d="M13.5,9a.5.5,0,0,1-.5-.5v-1a.5.5,0,0,1,1,0v1A.5.5,0,0,1,13.5,9Z"/><path d="M23.312,19.015a.5.5,0,0,1-.5-.5,8.931,8.931,0,0,0-17.862,0,.5.5,0,0,1-1,0,9.931,9.931,0,0,1,19.862,0A.5.5,0,0,1,23.312,19.015Z"/><path d="M10.737,18.979a.5.5,0,0,1-.5-.5,2.416,2.416,0,0,0-2.643-2.085A2.417,2.417,0,0,0,4.95,18.479a.5.5,0,0,1-1,0,3.4,3.4,0,0,1,3.644-3.085,3.4,3.4,0,0,1,3.643,3.085A.5.5,0,0,1,10.737,18.979Z"/><path d="M17.024,18.979a.5.5,0,0,1-.5-.5,2.416,2.416,0,0,0-2.643-2.085,2.417,2.417,0,0,0-2.644,2.085.5.5,0,0,1-1,0,3.4,3.4,0,0,1,3.644-3.085,3.4,3.4,0,0,1,3.643,3.085A.5.5,0,0,1,17.024,18.979Z"/><path d="M23.312,18.979a.5.5,0,0,1-.5-.5,2.417,2.417,0,0,0-2.644-2.085,2.417,2.417,0,0,0-2.644,2.085.5.5,0,0,1-1,0,3.4,3.4,0,0,1,3.644-3.085,3.4,3.4,0,0,1,3.644,3.085A.5.5,0,0,1,23.312,18.979Z"/><path d="M16.359,4.093h-1a1.984,1.984,0,1,0-3.968,0h-1a2.984,2.984,0,1,1,5.968,0Z"/><path d="M18.344,7.077a2.988,2.988,0,0,1-2.985-2.984h1a1.984,1.984,0,1,0,3.968,0h1A2.987,2.987,0,0,1,18.344,7.077Z"/><path d="M26.3,4.093h-1a1.985,1.985,0,1,0-3.969,0h-1a2.985,2.985,0,1,1,5.969,0Z"/><path d="M8.406,7.077A2.987,2.987,0,0,1,5.423,4.093h1a1.984,1.984,0,1,0,3.968,0h1A2.988,2.988,0,0,1,8.406,7.077Z"/><path d="M6.423,4.245h-1a1.985,1.985,0,0,0-3.969,0h-1a2.985,2.985,0,0,1,5.969,0Z"/><path d="M13,16v8.409a1.08,1.08,0,0,1-2.16,0h-1a2.08,2.08,0,0,0,4.16,0V16Z"/></svg>