<svg id="Layer_1" data-name="Layer 1" xmlns="http://www.w3.org/2000/svg" viewBox="0 0 27 27"><path d="M25.5,13H1.5a.5.5,0,0,1,0-1h24a.5.5,0,0,1,0,1Z"/><path d="M5,16.5a.5.5,0,0,1-.354-.146l-3.5-3.5a.5.5,0,0,1,.708-.708l3.5,3.5A.5.5,0,0,1,5,16.5Z"/><path d="M1.5,13a.5.5,0,0,1-.354-.854l3.5-3.5a.5.5,0,0,1,.708.708l-3.5,3.5A.5.5,0,0,1,1.5,13Z"/><path d="M25.5,13a.5.5,0,0,1-.354-.146l-3.5-3.5a.5.5,0,0,1,.708-.708l3.5,3.5A.5.5,0,0,1,25.5,13Z"/><path d="M22,16.5a.5.5,0,0,1-.354-.854l3.5-3.5a.5.5,0,0,1,.708.708l-3.5,3.5A.5.5,0,0,1,22,16.5Z"/></svg>