<?xml version="1.0" encoding="utf-8"?>
<!-- Generator: Adobe Illustrator 25.2.0, SVG Export Plug-In . SVG Version: 6.00 Build 0)  -->
<!DOCTYPE svg PUBLIC "-//W3C//DTD SVG 1.1//EN" "http://www.w3.org/Graphics/SVG/1.1/DTD/svg11.dtd" [
	<!ENTITY st0 "fill:none;stroke:#000000;stroke-width:2;stroke-miterlimit:10;">
	<!ENTITY st1 "fill:none;stroke:#000000;stroke-width:2;">
	<!ENTITY st2 "stroke:#000000;stroke-width:0.5;stroke-miterlimit:10;">
	<!ENTITY st3 "stroke:#000000;stroke-miterlimit:10;">
	<!ENTITY st4 "fill:none;stroke:#000000;">
	<!ENTITY st5 "fill:#FFFFFF;">
]>
<svg version="1.1" id="Layer_1" xmlns="http://www.w3.org/2000/svg" xmlns:xlink="http://www.w3.org/1999/xlink" x="0px" y="0px"
	 viewBox="0 0 30 30" style="enable-background:new 0 0 30 30;" xml:space="preserve">
<path style="&st3;" d="M6.2,19.1c-0.3,0-0.6,0-0.9,0C4.1,19,3.1,18,3.1,16.7c0-1.2,0.9-2.3,2.1-2.4c0.5,0,0.9,0,1.4,0
	c0-0.1,0.1-0.1,0.1-0.2c-0.1-0.1-0.3-0.1-0.4-0.2c-1.4-1.4-1.9-3.1-1.8-5c0-0.5,0.3-0.7,0.8-0.7c1.6,0,3.1,0,4.7,0
	c0.3,0,0.7,0.1,1,0.1C11,7.6,11,7,11.1,6.4c0.3-1.6,1-3,2.1-4.2c0.4-0.4,0.9-0.9,1.3-1.3c0.3-0.3,0.6-0.4,0.9-0.1
	c1.3,1.2,2.5,2.4,3.1,4.1c0.4,1,0.5,2,0.5,3.1c0,0.1,0,0.2,0,0.3c0.4,0,0.7-0.1,1.1-0.1c1.3,0,2.7,0,4,0c0.5,0,0.8,0.3,0.8,0.8
	c0.1,2-0.5,3.8-2.1,5.2c0,0,0,0.1-0.1,0.2c0.6,0,1.2,0,1.8,0c1.2,0,2,0.6,2.4,1.6c0.5,1.5-0.6,3.1-2.2,3.1c-0.3,0-0.6,0-0.9,0
	c-0.3,1.3-0.5,2.5-0.7,3.7c-0.3,1.6-0.6,3.1-0.9,4.7c-0.2,1.1-1,1.8-2.2,1.8c-3.3,0-6.5,0-9.8,0c-1.2,0-2-0.6-2.2-1.8
	c-0.5-2.7-1.1-5.4-1.6-8.1C6.3,19.3,6.3,19.2,6.2,19.1z M7.7,19.1c0,0.1,0,0.1,0,0.2c0.5,2.7,1.1,5.4,1.6,8c0.1,0.5,0.3,0.7,0.9,0.7
	c3.2,0,6.4,0,9.7,0c0.6,0,0.8-0.2,0.9-0.7c0.4-2,0.8-3.9,1.2-5.9c0.1-0.7,0.3-1.5,0.4-2.3C17.4,19.1,12.5,19.1,7.7,19.1z M15,17.7
	c3.1,0,6.1,0,9.2,0c0.1,0,0.3,0,0.4,0c0.5,0,1-0.5,1-1c0-0.5-0.4-0.9-0.9-1c-0.2,0-0.3,0-0.5,0c-6.1,0-12.2,0-18.3,0
	c-0.2,0-0.4,0-0.6,0c-0.4,0.1-0.7,0.3-0.8,0.8c-0.1,0.7,0.3,1.2,1.1,1.2C8.7,17.7,11.9,17.7,15,17.7z M15,2.4c-0.3,0.3-0.7,0.6-1,1
	c-1.2,1.3-1.7,2.9-1.7,4.7c0,0.5,0.1,0.9,0.7,1.2c0.5,0.2,0.8,0.7,1.2,1c0.3,0.3,0.6,0.7,0.9,1.1c0-0.1,0.1-0.1,0.1-0.1
	c0.6-1,1.3-1.8,2.3-2.3c0.1-0.1,0.2-0.3,0.2-0.4C17.9,6,16.9,4,15,2.4z M5.8,9.6c0,0.1,0,0.2,0,0.3c0.1,2.3,2,4.3,4.3,4.4
	c1.4,0.1,2.7,0,4.1,0c0,0,0.1,0,0.1-0.1c0-0.1,0-0.2,0-0.3c-0.1-2-1.7-4-3.8-4.3C9.4,9.5,8.3,9.6,7.2,9.6C6.7,9.5,6.3,9.6,5.8,9.6z
	 M15.7,14.3c1.2,0,2.2,0,3.3,0c1.5-0.1,2.7-0.8,3.6-2c0.6-0.8,0.9-1.7,0.9-2.7c-1.1,0-2.1,0-3.2,0c-0.9,0-1.8,0.3-2.5,0.8
	C16.5,11.3,15.7,12.6,15.7,14.3z"/>
</svg>
