<?xml version="1.0" encoding="utf-8"?>
<!-- Generator: Adobe Illustrator 25.2.0, SVG Export Plug-In . SVG Version: 6.00 Build 0)  -->
<!DOCTYPE svg PUBLIC "-//W3C//DTD SVG 1.1//EN" "http://www.w3.org/Graphics/SVG/1.1/DTD/svg11.dtd" [
	<!ENTITY st0 "fill:none;stroke:#000000;stroke-width:2;stroke-miterlimit:10;">
	<!ENTITY st1 "fill:none;stroke:#000000;stroke-width:2;">
	<!ENTITY st2 "stroke:#000000;stroke-width:0.5;stroke-miterlimit:10;">
	<!ENTITY st3 "stroke:#000000;stroke-miterlimit:10;">
	<!ENTITY st4 "fill:none;stroke:#000000;">
	<!ENTITY st5 "fill:#FFFFFF;">
]>
<svg version="1.1" id="Layer_1" xmlns="http://www.w3.org/2000/svg" xmlns:xlink="http://www.w3.org/1999/xlink" x="0px" y="0px"
	 viewBox="0 0 30 30" style="enable-background:new 0 0 30 30;" xml:space="preserve">
<path id="Path_3_8_" d="M30,12.2c-0.2-1.9-2-5.3-6.3-6c-2-0.3-4.1-0.1-5.9,0.7c-1.2,0.5-2.2,1.3-2.8,2.2c-0.7-0.9-1.6-1.6-2.8-2.2
	c-1.8-0.8-3.9-1.1-5.9-0.7C2,6.9,0.2,10.3,0,12.2c-0.3,4.4,5.6,9.1,14.8,11.8l0.1,0l0.1,0C24.4,21.3,30.3,16.6,30,12.2z"/>
<g>
	<g id="Rectangle_10_2_" transform="translate(0 0)">
		<rect x="53.4" y="1" style="&st0;" width="23.2" height="22.5"/>
		<rect x="54.1" y="1.8" style="&st1;" width="21.7" height="21"/>
	</g>
	<line id="Line_18_2_" style="&st1;" x1="65" y1="23.2" x2="65" y2="1.4"/>
	<line id="Line_19_2_" style="&st1;" x1="75.9" y1="12.3" x2="53.4" y2="12.3"/>
	<line id="Line_20_2_" style="&st1;" x1="75.9" y1="29" x2="53.4" y2="29"/>
</g>
<g id="Group_8_1_" transform="translate(0 0)">
	<circle id="Ellipse_6_2_" cx="115" cy="7.2" r="2.1"/>
	<path id="Path_6_2_" style="&st2;" d="M120.2,5c0.6-1,0.6-1.9-0.2-2.7c-0.8-0.9-1.8-0.8-2.9-0.3c-0.3-1.1-1-1.8-2.2-1.8
		c-1.2,0-1.8,0.7-2.2,1.8c-1-0.5-1.9-0.6-2.7,0.2c-0.9,0.8-0.9,1.9-0.4,2.9c-1.3,0.5-1.8,1.2-1.8,2.2c0,1.2,0.7,1.8,1.8,2.1
		c-0.6,1-0.6,1.9,0.2,2.7c0.8,0.9,1.8,0.8,2.9,0.3c0.2,0.8,0.7,1.5,1.5,1.7c0.1,0.1,0.2,0.3,0.3,0.4c0,0.3,0,0.7,0,1
		c0.1-0.1,0.2-0.1,0.3-0.1c0.1,0,0.3,0,0.4,0.1c0-0.4,0-0.8,0-1.2c0-0.1,0.1-0.3,0.2-0.3c0.8-0.3,1.4-0.9,1.6-1.8
		c1,0.6,1.9,0.6,2.8-0.2c0.9-0.8,0.8-1.8,0.3-2.9c1.1-0.3,1.8-0.9,1.8-2C122.1,6,121.4,5.3,120.2,5z M119.9,8.6c-0.2,0-0.4,0-0.7,0
		c-0.4,0.1-0.5,0.3-0.3,0.6c0.2,0.2,0.4,0.4,0.5,0.6c0.4,0.6,0.4,1.4-0.1,1.9c-0.5,0.5-1.3,0.5-1.9,0.1c-0.3-0.2-0.6-0.4-0.9-0.6
		c-0.1,0.4-0.2,0.7-0.2,1.1c-0.1,0.8-0.7,1.3-1.5,1.3c-0.7-0.1-1.2-0.6-1.3-1.3c-0.1-0.4-0.1-0.7-0.2-1.1c-0.3,0.2-0.6,0.4-0.9,0.6
		c-0.6,0.4-1.3,0.4-1.9-0.1c-0.5-0.5-0.5-1.3-0.1-1.9c0.2-0.3,0.4-0.6,0.6-0.9c-0.4-0.1-0.7-0.2-1.1-0.3c-0.7-0.1-1.3-0.7-1.3-1.4
		c0-0.7,0.6-1.3,1.3-1.4c0.4-0.1,0.7-0.2,1-0.2c-0.2-0.3-0.4-0.6-0.6-0.9c-0.4-0.6-0.4-1.3,0.1-1.9c0.5-0.5,1.3-0.6,1.9-0.1
		c0.3,0.2,0.6,0.4,0.9,0.6c0.1-0.3,0.2-0.7,0.2-1c0.1-0.7,0.7-1.3,1.4-1.3c0.7,0,1.3,0.6,1.4,1.3c0,0,0,0,0,0.1
		c0.1,0.3,0.2,0.6,0.2,1c0.3-0.1,0.6-0.3,0.8-0.5c0.7-0.6,1.4-0.6,2,0c0.5,0.6,0.5,1.4,0,2c-0.2,0.3-0.4,0.5-0.5,0.8
		c0.3,0.1,0.6,0.2,0.9,0.2c0.9,0.1,1.4,0.6,1.4,1.4C121.3,7.9,120.7,8.5,119.9,8.6L119.9,8.6z"/>
	<path id="Path_7_2_" d="M121.2,16.5c-1.7,1.1-3.2,2.5-5,4c0-1.6,0-6,0-7.5c-0.4,0.4-0.9,0.7-1.5,0.8c-0.4,0-0.8-0.4-1.1-0.6
		c0,1.4,0,5.6,0,7.1c-1.9-1.5-3.3-3-5-4.1c-1.8-1.2-4-2.4-5.8-0.6c-1.9,1.8-0.7,4.1,0.4,5.9c2.4,4,5.6,7.2,10.4,8.3v0
		c0.7,0,1.4,0,2.1-0.1c0.2,0,0.3,0,0.5,0v0c5.2-1.9,8-3.9,10.5-7.6c1.7-2.5,2.1-5.1,0.9-6.3C126.5,14.7,123.6,14.9,121.2,16.5z
		 M104.8,17.3c4.4,2,7.2,4.9,8.9,9.1C110.4,26.7,105.4,21.7,104.8,17.3L104.8,17.3z M116.5,26.5c0.4-3.5,5-7.9,8.8-8.5
		C124.9,21.5,120.2,26,116.5,26.5L116.5,26.5z"/>
</g>
<path style="&st3;" d="M156.2,19.1c-0.3,0-0.6,0-0.9,0c-1.2-0.1-2.2-1.1-2.3-2.3c0-1.2,0.9-2.3,2.1-2.4c0.5,0,0.9,0,1.4,0
	c0-0.1,0.1-0.1,0.1-0.2c-0.1-0.1-0.3-0.1-0.4-0.2c-1.4-1.4-1.9-3.1-1.8-5c0-0.5,0.3-0.7,0.8-0.7c1.6,0,3.1,0,4.7,0
	c0.3,0,0.7,0.1,1,0.1c0.1-0.7,0.1-1.3,0.2-1.9c0.3-1.6,1-3,2.1-4.2c0.4-0.4,0.9-0.9,1.3-1.3c0.3-0.3,0.6-0.4,0.9-0.1
	c1.3,1.2,2.5,2.4,3.1,4.1c0.4,1,0.5,2,0.5,3.1c0,0.1,0,0.2,0,0.3c0.4,0,0.7-0.1,1.1-0.1c1.3,0,2.7,0,4,0c0.5,0,0.8,0.3,0.8,0.8
	c0.1,2-0.5,3.8-2.1,5.2c0,0,0,0.1-0.1,0.2c0.6,0,1.2,0,1.8,0c1.2,0,2,0.6,2.4,1.6c0.5,1.5-0.6,3.1-2.2,3.1c-0.3,0-0.6,0-0.9,0
	c-0.3,1.3-0.5,2.5-0.7,3.7c-0.3,1.6-0.6,3.1-0.9,4.7c-0.2,1.1-1,1.8-2.2,1.8c-3.3,0-6.5,0-9.8,0c-1.2,0-2-0.6-2.2-1.8
	c-0.5-2.7-1.1-5.4-1.6-8.1C156.3,19.3,156.3,19.2,156.2,19.1z M157.7,19.1c0,0.1,0,0.1,0,0.2c0.5,2.7,1.1,5.4,1.6,8
	c0.1,0.5,0.3,0.7,0.9,0.7c3.2,0,6.4,0,9.7,0c0.6,0,0.8-0.2,0.9-0.7c0.4-2,0.8-3.9,1.2-5.9c0.1-0.7,0.3-1.5,0.4-2.3
	C167.4,19.1,162.5,19.1,157.7,19.1z M165,17.7c3.1,0,6.1,0,9.2,0c0.1,0,0.3,0,0.4,0c0.5,0,1-0.5,1-1c0-0.5-0.4-0.9-0.9-1
	c-0.2,0-0.3,0-0.5,0c-6.1,0-12.2,0-18.3,0c-0.2,0-0.4,0-0.6,0c-0.4,0.1-0.7,0.3-0.8,0.8c-0.1,0.7,0.3,1.2,1.1,1.2
	C158.7,17.7,161.9,17.7,165,17.7z M165,2.4c-0.3,0.3-0.7,0.6-1,1c-1.2,1.3-1.7,2.9-1.7,4.7c0,0.5,0.1,0.9,0.7,1.2
	c0.5,0.2,0.8,0.7,1.2,1c0.3,0.3,0.6,0.7,0.9,1.1c0-0.1,0.1-0.1,0.1-0.1c0.6-1,1.3-1.8,2.3-2.3c0.1-0.1,0.2-0.3,0.2-0.4
	C167.9,6,166.9,4,165,2.4z M155.8,9.6c0,0.1,0,0.2,0,0.3c0.1,2.3,2,4.3,4.3,4.4c1.4,0.1,2.7,0,4.1,0c0,0,0.1,0,0.1-0.1
	c0-0.1,0-0.2,0-0.3c-0.1-2-1.7-4-3.8-4.3c-1.1-0.2-2.2-0.1-3.3-0.1C156.7,9.5,156.3,9.6,155.8,9.6z M165.7,14.3c1.2,0,2.2,0,3.3,0
	c1.5-0.1,2.7-0.8,3.6-2c0.6-0.8,0.9-1.7,0.9-2.7c-1.1,0-2.1,0-3.2,0c-0.9,0-1.8,0.3-2.5,0.8C166.5,11.3,165.7,12.6,165.7,14.3z"/>
<g id="Group_3_2_" transform="translate(49.972 355.33)">
	<circle id="Ellipse_5_1_" cx="-44" cy="-295.8" r="6"/>
	<rect id="Rectangle_8_1_" x="-30.8" y="-301.8" width="10.8" height="10.8"/>
	<path id="Polygon_1_1_" d="M-34.7-292.1l7.3,13.2H-42L-34.7-292.1z"/>
	<g>
		<line id="Line_1_1_" style="&st4;" x1="-39.9" y1="-295.9" x2="-29.3" y2="-295.9"/>
		<line id="Line_2_1_" style="&st4;" x1="-34.6" y1="-295.9" x2="-34.6" y2="-290.1"/>
	</g>
</g>
<g id="Group_4_1_" transform="translate(44.565 406.83)">
	<g id="Line_3_8_">
		<line style="&st5;" x1="20.4" y1="-355.2" x2="20.4" y2="-328.5"/>
		<g>
			<path d="M18.9-355.2c0,7.8,0,15.6,0,23.4c0,1.1,0,2.2,0,3.3c0,1.9,3,1.9,3,0c0-7.8,0-15.6,0-23.4c0-1.1,0-2.2,0-3.3
				C21.9-357.1,18.9-357.1,18.9-355.2L18.9-355.2z"/>
		</g>
	</g>
	<g id="Line_4_8_">
		<line style="&st5;" x1="15.1" y1="-349.8" x2="20.4" y2="-355.2"/>
		<g>
			<path d="M16.2-348.8c1.6-1.6,3.1-3.1,4.7-4.7c0.2-0.2,0.4-0.4,0.7-0.7c0.6-0.6,0.6-1.6,0-2.1c-0.6-0.5-1.5-0.6-2.1,0
				c-1.6,1.6-3.1,3.1-4.7,4.7c-0.2,0.2-0.4,0.4-0.7,0.7c-0.6,0.6-0.6,1.6,0,2.1C14.6-348.2,15.6-348.2,16.2-348.8L16.2-348.8z"/>
		</g>
	</g>
	<g id="Line_5_8_">
		<line style="&st5;" x1="25.8" y1="-349.8" x2="20.4" y2="-355.2"/>
		<g>
			<path d="M26.8-350.9c-1.6-1.6-3.1-3.1-4.7-4.7c-0.2-0.2-0.4-0.4-0.7-0.7c-0.6-0.6-1.6-0.6-2.1,0c-0.5,0.6-0.6,1.5,0,2.1
				c1.6,1.6,3.1,3.1,4.7,4.7c0.2,0.2,0.4,0.4,0.7,0.7c0.6,0.6,1.6,0.6,2.1,0C27.4-349.4,27.4-350.3,26.8-350.9L26.8-350.9z"/>
		</g>
	</g>
	<g id="Line_6_8_">
		<line style="&st5;" x1="25.8" y1="-333.8" x2="20.4" y2="-328.5"/>
		<g>
			<path d="M24.7-334.9c-1.6,1.6-3.1,3.1-4.7,4.7c-0.2,0.2-0.4,0.4-0.7,0.7c-0.6,0.6-0.6,1.6,0,2.1c0.6,0.5,1.5,0.6,2.1,0
				c1.6-1.6,3.1-3.1,4.7-4.7c0.2-0.2,0.4-0.4,0.7-0.7c0.6-0.6,0.6-1.6,0-2.1C26.2-335.4,25.3-335.5,24.7-334.9L24.7-334.9z"/>
		</g>
	</g>
	<g id="Line_7_8_">
		<line style="&st5;" x1="15.1" y1="-333.8" x2="20.4" y2="-328.5"/>
		<g>
			<path d="M14-332.8c1.6,1.6,3.1,3.1,4.7,4.7c0.2,0.2,0.4,0.4,0.7,0.7c0.6,0.6,1.6,0.6,2.1,0c0.5-0.6,0.6-1.5,0-2.1
				c-1.6-1.6-3.1-3.1-4.7-4.7c-0.2-0.2-0.4-0.4-0.7-0.7c-0.6-0.6-1.6-0.6-2.1,0C13.5-334.3,13.4-333.3,14-332.8L14-332.8z"/>
		</g>
	</g>
</g>
<g id="Group_4_2_" transform="translate(44.565 406.83)">
	<g id="Line_3_1_">
		<line style="&st5;" x1="57.1" y1="-341.8" x2="83.8" y2="-341.8"/>
		<g>
			<path d="M57.1-340.3c7.8,0,15.6,0,23.4,0c1.1,0,2.2,0,3.3,0c1.9,0,1.9-3,0-3c-7.8,0-15.6,0-23.4,0c-1.1,0-2.2,0-3.3,0
				C55.1-343.3,55.1-340.3,57.1-340.3L57.1-340.3z"/>
		</g>
	</g>
	<g id="Line_4_1_">
		<line style="&st5;" x1="62.4" y1="-336.5" x2="57.1" y2="-341.8"/>
		<g>
			<path d="M63.5-337.5c-1.6-1.6-3.1-3.1-4.7-4.7c-0.2-0.2-0.4-0.4-0.7-0.7c-0.6-0.6-1.6-0.6-2.1,0c-0.5,0.6-0.6,1.5,0,2.1
				c1.6,1.6,3.1,3.1,4.7,4.7c0.2,0.2,0.4,0.4,0.7,0.7c0.6,0.6,1.6,0.6,2.1,0C64-336,64.1-337,63.5-337.5L63.5-337.5z"/>
		</g>
	</g>
	<g id="Line_5_1_">
		<line style="&st5;" x1="62.4" y1="-347.2" x2="57.1" y2="-341.8"/>
		<g>
			<path d="M61.4-348.2c-1.6,1.6-3.1,3.1-4.7,4.7c-0.2,0.2-0.4,0.4-0.7,0.7c-0.6,0.6-0.6,1.6,0,2.1c0.6,0.5,1.5,0.6,2.1,0
				c1.6-1.6,3.1-3.1,4.7-4.7c0.2-0.2,0.4-0.4,0.7-0.7c0.6-0.6,0.6-1.6,0-2.1C62.9-348.8,62-348.8,61.4-348.2L61.4-348.2z"/>
		</g>
	</g>
	<g id="Line_6_1_">
		<line style="&st5;" x1="78.4" y1="-347.2" x2="83.8" y2="-341.8"/>
		<g>
			<path d="M77.4-346.1c1.6,1.6,3.1,3.1,4.7,4.7c0.2,0.2,0.4,0.4,0.7,0.7c0.6,0.6,1.6,0.6,2.1,0c0.5-0.6,0.6-1.5,0-2.1
				c-1.6-1.6-3.1-3.1-4.7-4.7c-0.2-0.2-0.4-0.4-0.7-0.7c-0.6-0.6-1.6-0.6-2.1,0C76.8-347.6,76.8-346.7,77.4-346.1L77.4-346.1z"/>
		</g>
	</g>
	<g id="Line_7_1_">
		<line style="&st5;" x1="78.4" y1="-336.5" x2="83.8" y2="-341.8"/>
		<g>
			<path d="M79.5-335.4c1.6-1.6,3.1-3.1,4.7-4.7c0.2-0.2,0.4-0.4,0.7-0.7c0.6-0.6,0.6-1.6,0-2.1c-0.6-0.5-1.5-0.6-2.1,0
				c-1.6,1.6-3.1,3.1-4.7,4.7c-0.2,0.2-0.4,0.4-0.7,0.7c-0.6,0.6-0.6,1.6,0,2.1C78-334.9,78.9-334.8,79.5-335.4L79.5-335.4z"/>
		</g>
	</g>
</g>
</svg>
