<?xml version="1.0" encoding="utf-8"?>
<!-- Generator: Adobe Illustrator 25.2.0, SVG Export Plug-In . SVG Version: 6.00 Build 0)  -->
<!DOCTYPE svg PUBLIC "-//W3C//DTD SVG 1.1//EN" "http://www.w3.org/Graphics/SVG/1.1/DTD/svg11.dtd" [
	<!ENTITY st0 "fill:none;stroke:#000000;stroke-width:2;stroke-miterlimit:10;">
	<!ENTITY st1 "fill:none;stroke:#000000;stroke-width:2;">
	<!ENTITY st2 "stroke:#000000;stroke-width:0.5;stroke-miterlimit:10;">
	<!ENTITY st3 "stroke:#000000;stroke-miterlimit:10;">
	<!ENTITY st4 "fill:none;stroke:#000000;">
	<!ENTITY st5 "fill:#FFFFFF;">
]>
<svg version="1.1" id="Layer_1" xmlns="http://www.w3.org/2000/svg" xmlns:xlink="http://www.w3.org/1999/xlink" x="0px" y="0px"
	 viewBox="0 0 30 30" style="enable-background:new 0 0 30 30;" xml:space="preserve">
<g id="Group_8_1_" transform="translate(0 0)">
	<circle id="Ellipse_6_2_" cx="15" cy="7.2" r="2.1"/>
	<path id="Path_6_2_" style="&st2;" d="M20.2,5c0.6-1,0.6-1.9-0.2-2.7c-0.8-0.9-1.8-0.8-2.9-0.3c-0.3-1.1-1-1.8-2.2-1.8
		c-1.2,0-1.8,0.7-2.2,1.8c-1-0.5-1.9-0.6-2.7,0.2C9.2,2.9,9.2,3.9,9.8,5C8.5,5.5,7.9,6.2,8,7.2C8,8.3,8.7,9,9.8,9.3
		c-0.6,1-0.6,1.9,0.2,2.7c0.8,0.9,1.8,0.8,2.9,0.3c0.2,0.8,0.7,1.5,1.5,1.7c0.1,0.1,0.2,0.3,0.3,0.4c0,0.3,0,0.7,0,1
		c0.1-0.1,0.2-0.1,0.3-0.1c0.1,0,0.3,0,0.4,0.1c0-0.4,0-0.8,0-1.2c0-0.1,0.1-0.3,0.2-0.3c0.8-0.3,1.4-0.9,1.6-1.8
		c1,0.6,1.9,0.6,2.8-0.2c0.9-0.8,0.8-1.8,0.3-2.9C21.3,9,22,8.4,22,7.3C22.1,6,21.4,5.3,20.2,5z M19.9,8.6c-0.2,0-0.4,0-0.7,0
		c-0.4,0.1-0.5,0.3-0.3,0.6c0.2,0.2,0.4,0.4,0.5,0.6c0.4,0.6,0.4,1.4-0.1,1.9c-0.5,0.5-1.3,0.5-1.9,0.1c-0.3-0.2-0.6-0.4-0.9-0.6
		c-0.1,0.4-0.2,0.7-0.2,1.1c-0.1,0.8-0.7,1.3-1.5,1.3c-0.7-0.1-1.2-0.6-1.3-1.3c-0.1-0.4-0.1-0.7-0.2-1.1c-0.3,0.2-0.6,0.4-0.9,0.6
		c-0.6,0.4-1.3,0.4-1.9-0.1c-0.5-0.5-0.5-1.3-0.1-1.9c0.2-0.3,0.4-0.6,0.6-0.9c-0.4-0.1-0.7-0.2-1.1-0.3C9.3,8.5,8.7,7.9,8.7,7.1
		c0-0.7,0.6-1.3,1.3-1.4c0.4-0.1,0.7-0.2,1-0.2c-0.2-0.3-0.4-0.6-0.6-0.9C10,4,10.1,3.3,10.5,2.7c0.5-0.5,1.3-0.6,1.9-0.1
		c0.3,0.2,0.6,0.4,0.9,0.6c0.1-0.3,0.2-0.7,0.2-1c0.1-0.7,0.7-1.3,1.4-1.3c0.7,0,1.3,0.6,1.4,1.3c0,0,0,0,0,0.1
		c0.1,0.3,0.2,0.6,0.2,1c0.3-0.1,0.6-0.3,0.8-0.5c0.7-0.6,1.4-0.6,2,0c0.5,0.6,0.5,1.4,0,2c-0.2,0.3-0.4,0.5-0.5,0.8
		c0.3,0.1,0.6,0.2,0.9,0.2c0.9,0.1,1.4,0.6,1.4,1.4C21.3,7.9,20.7,8.5,19.9,8.6L19.9,8.6z"/>
	<path id="Path_7_2_" d="M21.2,16.5c-1.7,1.1-3.2,2.5-5,4c0-1.6,0-6,0-7.5c-0.4,0.4-0.9,0.7-1.5,0.8c-0.4,0-0.8-0.4-1.1-0.6
		c0,1.4,0,5.6,0,7.1c-1.9-1.5-3.3-3-5-4.1c-1.8-1.2-4-2.4-5.8-0.6c-1.9,1.8-0.7,4.1,0.4,5.9c2.4,4,5.6,7.2,10.4,8.3v0
		c0.7,0,1.4,0,2.1-0.1c0.2,0,0.3,0,0.5,0v0c5.2-1.9,8-3.9,10.5-7.6c1.7-2.5,2.1-5.1,0.9-6.3C26.5,14.7,23.6,14.9,21.2,16.5z
		 M4.8,17.3c4.4,2,7.2,4.9,8.9,9.1C10.4,26.7,5.4,21.7,4.8,17.3L4.8,17.3z M16.5,26.5c0.4-3.5,5-7.9,8.8-8.5
		C24.9,21.5,20.2,26,16.5,26.5L16.5,26.5z"/>
</g>
</svg>
