<?xml version="1.0" encoding="utf-8"?>
<!-- Generator: Adobe Illustrator 25.2.0, SVG Export Plug-In . SVG Version: 6.00 Build 0)  -->
<!DOCTYPE svg PUBLIC "-//W3C//DTD SVG 1.1//EN" "http://www.w3.org/Graphics/SVG/1.1/DTD/svg11.dtd" [
	<!ENTITY st0 "fill:none;stroke:#000000;stroke-width:2;stroke-miterlimit:10;">
	<!ENTITY st1 "fill:none;stroke:#000000;stroke-width:2;">
	<!ENTITY st2 "stroke:#000000;stroke-width:0.5;stroke-miterlimit:10;">
	<!ENTITY st3 "stroke:#000000;stroke-miterlimit:10;">
	<!ENTITY st4 "fill:none;stroke:#000000;">
	<!ENTITY st5 "fill:#FFFFFF;">
]>
<svg version="1.1" id="Layer_1" xmlns="http://www.w3.org/2000/svg" xmlns:xlink="http://www.w3.org/1999/xlink" x="0px" y="0px"
	 viewBox="0 0 30 30" style="enable-background:new 0 0 30 30;" xml:space="preserve">
<g id="Group_4_1_" transform="translate(44.565 406.83)">
	<g id="Line_3_8_">
		<g>
			<path d="M-31.1-405.2c0,7.8,0,15.6,0,23.4c0,1.1,0,2.2,0,3.3c0,1.9,3,1.9,3,0c0-7.8,0-15.6,0-23.4c0-1.1,0-2.2,0-3.3
				C-28.1-407.1-31.1-407.1-31.1-405.2L-31.1-405.2z"/>
		</g>
	</g>
	<g id="Line_4_8_">
		<line style="&st5;" x1="-34.9" y1="-399.8" x2="-29.6" y2="-405.2"/>
		<g>
			<path d="M-33.8-398.8c1.6-1.6,3.1-3.1,4.7-4.7c0.2-0.2,0.4-0.4,0.7-0.7c0.6-0.6,0.6-1.6,0-2.1c-0.6-0.5-1.5-0.6-2.1,0
				c-1.6,1.6-3.1,3.1-4.7,4.7c-0.2,0.2-0.4,0.4-0.7,0.7c-0.6,0.6-0.6,1.6,0,2.1C-35.4-398.2-34.4-398.2-33.8-398.8L-33.8-398.8z"/>
		</g>
	</g>
	<g id="Line_5_8_">
		<line style="&st5;" x1="-24.2" y1="-399.8" x2="-29.6" y2="-405.2"/>
		<g>
			<path d="M-23.2-400.9c-1.6-1.6-3.1-3.1-4.7-4.7c-0.2-0.2-0.4-0.4-0.7-0.7c-0.6-0.6-1.6-0.6-2.1,0c-0.5,0.6-0.6,1.5,0,2.1
				c1.6,1.6,3.1,3.1,4.7,4.7c0.2,0.2,0.4,0.4,0.7,0.7c0.6,0.6,1.6,0.6,2.1,0C-22.6-399.4-22.6-400.3-23.2-400.9L-23.2-400.9z"/>
		</g>
	</g>
	<g id="Line_6_8_">
		<line style="&st5;" x1="-24.2" y1="-383.8" x2="-29.6" y2="-378.5"/>
		<g>
			<path d="M-25.3-384.9c-1.6,1.6-3.1,3.1-4.7,4.7c-0.2,0.2-0.4,0.4-0.7,0.7c-0.6,0.6-0.6,1.6,0,2.1c0.6,0.5,1.5,0.6,2.1,0
				c1.6-1.6,3.1-3.1,4.7-4.7c0.2-0.2,0.4-0.4,0.7-0.7c0.6-0.6,0.6-1.6,0-2.1C-23.8-385.4-24.7-385.5-25.3-384.9L-25.3-384.9z"/>
		</g>
	</g>
	<g id="Line_7_8_">
		<line style="&st5;" x1="-34.9" y1="-383.8" x2="-29.6" y2="-378.5"/>
		<g>
			<path d="M-36-382.8c1.6,1.6,3.1,3.1,4.7,4.7c0.2,0.2,0.4,0.4,0.7,0.7c0.6,0.6,1.6,0.6,2.1,0c0.5-0.6,0.6-1.5,0-2.1
				c-1.6-1.6-3.1-3.1-4.7-4.7c-0.2-0.2-0.4-0.4-0.7-0.7c-0.6-0.6-1.6-0.6-2.1,0C-36.5-384.3-36.6-383.3-36-382.8L-36-382.8z"/>
		</g>
	</g>
</g>
</svg>
