<?xml version="1.0" encoding="utf-8"?>
<!-- Generator: Adobe Illustrator 25.2.0, SVG Export Plug-In . SVG Version: 6.00 Build 0)  -->
<svg version="1.1" id="Layer_1" xmlns="http://www.w3.org/2000/svg" xmlns:xlink="http://www.w3.org/1999/xlink" x="0px" y="0px"
	 viewBox="0 0 40 40" style="enable-background:new 0 0 40 40;" xml:space="preserve">
<style type="text/css">
	.st0{fill:#1D1D1B;}
</style>
<path class="st0" d="M32.7,16.9c-0.1-2.1-1.7-5.7-5.3-6.5c-1.6-0.4-3.5-0.1-5,0.8c-1,0.6-1.9,1.4-2.4,2.4c-0.5-1-1.4-1.8-2.4-2.4
	c-1.5-0.9-3.4-1.2-5-0.8c-3.6,0.8-5.2,4.4-5.3,6.5C7,21.7,12,26.8,19.9,29.6l0,0.1c0,0,0.1,0,0.1,0c0,0,0.1,0,0.1,0l0-0.1
	C28,26.8,33,21.7,32.7,16.9z"/>
<path class="st0" d="M28.7,1.8C11.1-5.7-5.7,11.1,1.8,28.7c1.8,4.3,5.2,7.7,9.5,9.5c17.5,7.5,34.3-9.3,26.8-26.8
	C36.3,7.1,32.9,3.7,28.7,1.8z M21.4,37.1v-0.9c0-0.6-0.5-1.1-1.1-1.1h-0.7c-0.6,0-1.1,0.5-1.1,1.1v0.9c-8.3-0.7-15-7.3-15.6-15.6
	h0.9c0.6,0,1.1-0.5,1.1-1.1v-0.7c0-0.6-0.5-1.1-1.1-1.1H2.9c0.7-8.3,7.3-15,15.6-15.6v0.9c0,0.6,0.5,1.1,1.1,1.1h0.7
	c0.6,0,1.1-0.5,1.1-1.1V2.9c8.3,0.7,15,7.3,15.6,15.6h-0.9c-0.6,0-1.1,0.5-1.1,1.1v0.7c0,0.6,0.5,1.1,1.1,1.1h0.9
	C36.4,29.7,29.7,36.4,21.4,37.1z"/>
</svg>
