<?xml version="1.0" encoding="utf-8"?>
<!-- Generator: Adobe Illustrator 25.2.0, SVG Export Plug-In . SVG Version: 6.00 Build 0)  -->
<!DOCTYPE svg PUBLIC "-//W3C//DTD SVG 1.1//EN" "http://www.w3.org/Graphics/SVG/1.1/DTD/svg11.dtd" [
	<!ENTITY st0 "fill:none;stroke:#000000;stroke-width:2;stroke-miterlimit:10;">
	<!ENTITY st1 "fill:none;stroke:#000000;stroke-width:2;">
	<!ENTITY st2 "stroke:#000000;stroke-width:0.5;stroke-miterlimit:10;">
	<!ENTITY st3 "stroke:#000000;stroke-miterlimit:10;">
	<!ENTITY st4 "fill:none;stroke:#000000;">
	<!ENTITY st5 "fill:#FFFFFF;">
]>
<svg version="1.1" id="Layer_1" xmlns="http://www.w3.org/2000/svg" xmlns:xlink="http://www.w3.org/1999/xlink" x="0px" y="0px"
	 viewBox="0 0 30 30" style="enable-background:new 0 0 30 30;" xml:space="preserve">
<g id="Group_4_2_" transform="translate(44.565 406.83)">
	<g id="Line_3_1_">
		<g>
			<path d="M-42.9-390.3c7.8,0,15.6,0,23.4,0c1.1,0,2.2,0,3.3,0c1.9,0,1.9-3,0-3c-7.8,0-15.6,0-23.4,0c-1.1,0-2.2,0-3.3,0
				C-44.9-393.3-44.9-390.3-42.9-390.3L-42.9-390.3z"/>
		</g>
	</g>
	<g id="Line_4_1_">
		<line style="&st5;" x1="-37.6" y1="-386.5" x2="-42.9" y2="-391.8"/>
		<g>
			<path d="M-36.5-387.5c-1.6-1.6-3.1-3.1-4.7-4.7c-0.2-0.2-0.4-0.4-0.7-0.7c-0.6-0.6-1.6-0.6-2.1,0c-0.5,0.6-0.6,1.5,0,2.1
				c1.6,1.6,3.1,3.1,4.7,4.7c0.2,0.2,0.4,0.4,0.7,0.7c0.6,0.6,1.6,0.6,2.1,0C-36-386-35.9-387-36.5-387.5L-36.5-387.5z"/>
		</g>
	</g>
	<g id="Line_5_1_">
		<line style="&st5;" x1="-37.6" y1="-397.2" x2="-42.9" y2="-391.8"/>
		<g>
			<path d="M-38.6-398.2c-1.6,1.6-3.1,3.1-4.7,4.7c-0.2,0.2-0.4,0.4-0.7,0.7c-0.6,0.6-0.6,1.6,0,2.1c0.6,0.5,1.5,0.6,2.1,0
				c1.6-1.6,3.1-3.1,4.7-4.7c0.2-0.2,0.4-0.4,0.7-0.7c0.6-0.6,0.6-1.6,0-2.1C-37.1-398.8-38-398.8-38.6-398.2L-38.6-398.2z"/>
		</g>
	</g>
	<g id="Line_6_1_">
		<line style="&st5;" x1="-21.6" y1="-397.2" x2="-16.2" y2="-391.8"/>
		<g>
			<path d="M-22.6-396.1c1.6,1.6,3.1,3.1,4.7,4.7c0.2,0.2,0.4,0.4,0.7,0.7c0.6,0.6,1.6,0.6,2.1,0c0.5-0.6,0.6-1.5,0-2.1
				c-1.6-1.6-3.1-3.1-4.7-4.7c-0.2-0.2-0.4-0.4-0.7-0.7c-0.6-0.6-1.6-0.6-2.1,0C-23.2-397.6-23.2-396.7-22.6-396.1L-22.6-396.1z"/>
		</g>
	</g>
	<g id="Line_7_1_">
		<line style="&st5;" x1="-21.6" y1="-386.5" x2="-16.2" y2="-391.8"/>
		<g>
			<path d="M-20.5-385.4c1.6-1.6,3.1-3.1,4.7-4.7c0.2-0.2,0.4-0.4,0.7-0.7c0.6-0.6,0.6-1.6,0-2.1c-0.6-0.5-1.5-0.6-2.1,0
				c-1.6,1.6-3.1,3.1-4.7,4.7c-0.2,0.2-0.4,0.4-0.7,0.7c-0.6,0.6-0.6,1.6,0,2.1C-22-384.9-21.1-384.8-20.5-385.4L-20.5-385.4z"/>
		</g>
	</g>
</g>
</svg>
