<svg id="Layer_1" data-name="Layer 1" xmlns="http://www.w3.org/2000/svg" viewBox="0 0 233.475 247.721"><defs><style>.cls-1{fill:#1e1e1c;}</style></defs><path class="cls-1" d="M178.835,19.847a109.858,109.858,0,0,0-77.969,4.092Q98.709,24.95,96.558,25.9c-1.406.712-2.788,1.465-4.174,2.185-1.4.687-2.72,1.534-4.056,2.327-1.325.812-2.687,1.541-3.935,2.462A100.371,100.371,0,0,0,70.014,44.282a98.644,98.644,0,0,0-20.99,28.51,81.793,81.793,0,0,0-5.715,15.9,75.722,75.722,0,0,0-2.128,16.316,92.675,92.675,0,0,0,5.567,33.062,110.518,110.518,0,0,0,16.5,30.125,102.4,102.4,0,0,0,11.4,12.613,86.175,86.175,0,0,0,12.972,10.13,72.7,72.7,0,0,0,14.137,7.106,71.857,71.857,0,0,0,15.3,3.856,77.223,77.223,0,0,0,31.765-2.089c1.284-.354,2.53-.806,3.808-1.188l3.722-1.4a69.618,69.618,0,0,0,7.206-3.437,87.428,87.428,0,0,0,13.8-9.413A78.6,78.6,0,0,0,188.926,172.6a54.127,54.127,0,0,0,7.835-13.1,34.418,34.418,0,0,0,2.712-13.345,30.968,30.968,0,0,0-3.313-13.23,43.115,43.115,0,0,0-9.544-12.418c-.964-.994-2.105-1.784-3.169-2.7-.524-.471-1.132-.816-1.7-1.237-.577-.4-1.141-.831-1.728-1.227a56.091,56.091,0,0,0-7.5-4.072,60.579,60.579,0,0,0-17.346-4.645,89.59,89.59,0,0,0-19.268-.245,88.078,88.078,0,0,0-19.465,4.055A70.171,70.171,0,0,0,98,119.6a60.6,60.6,0,0,1,15.235-15.351,84.856,84.856,0,0,1,19.7-10.346,93.1,93.1,0,0,1,22.175-5.294c1.933-.163,3.876-.354,5.835-.427l2.957-.036c.988-.011,1.978-.033,2.978.04,2,.12,3.989.143,6.052.455l3.085.394,3.045.593a73.74,73.74,0,0,1,11.943,3.576c1.916.822,3.855,1.637,5.73,2.591,1.844,1.007,3.761,1.922,5.532,3.1l2.7,1.709c.887.595,1.733,1.258,2.6,1.892a62.715,62.715,0,0,1,5.027,4.116,32.365,32.365,0,0,1,2.387,2.262l2.323,2.366c.74.829,1.445,1.7,2.165,2.558.7.874,1.46,1.7,2.091,2.652A61.552,61.552,0,0,1,232.7,142.11,66.8,66.8,0,0,1,231.39,170.1a86.457,86.457,0,0,1-10.578,24.288,111.451,111.451,0,0,1-15.8,19.76,119.582,119.582,0,0,1-19.5,15.806,107.614,107.614,0,0,1-11.239,6.41c-1.965.9-3.929,1.812-5.917,2.663-2.01.778-4.011,1.608-6.047,2.315a115.287,115.287,0,0,1-76.2-.176A117.307,117.307,0,0,1,62.853,229.7,129.123,129.123,0,0,1,43.01,213.976a141.575,141.575,0,0,1-16.219-18.75,143.659,143.659,0,0,1-21.576-43.97A125.523,125.523,0,0,1,.782,101.768,109.556,109.556,0,0,1,6.608,77.106a111.05,111.05,0,0,1,11.133-22.3,120.521,120.521,0,0,1,33.63-34.219c1.663-1.078,3.307-2.171,4.979-3.213l5.122-2.947,5.238-2.7L72.1,9.337c1.772-.831,3.634-1.448,5.455-2.136s3.641-1.368,5.52-1.875c1.863-.544,3.711-1.109,5.571-1.618,1.882-.441,3.761-.87,5.638-1.275,1.862-.459,3.786-.668,5.668-.995L102.777,1c.941-.15,1.9-.206,2.847-.311,1.9-.174,3.785-.4,5.678-.516,1.9-.082,3.8-.123,5.685-.168a113.282,113.282,0,0,1,22.38,2.07,104.492,104.492,0,0,1,21.055,6.613A90.354,90.354,0,0,1,178.835,19.847Z"/></svg>